<?xml version="1.0" standalone="no"?>
<!DOCTYPE svg PUBLIC "-//W3C//DTD SVG 20010904//EN"
 "http://www.w3.org/TR/2001/REC-SVG-20010904/DTD/svg10.dtd">
<svg version="1.0" xmlns="http://www.w3.org/2000/svg"
 width="6500.000000pt" height="2600.000000pt" viewBox="0 0 6500.000000 2600.000000"
 preserveAspectRatio="xMidYMid meet">

<g transform="translate(0.000000,2600.000000) scale(0.100000,-0.100000)"
fill="#000000" stroke="none">
<path d="M46050 22723 c-291 -17 -510 -49 -850 -123 -214 -46 -555 -160 -815
-272 -95 -40 -414 -197 -445 -218 -14 -9 -50 -31 -80 -47 -290 -159 -670 -441
-977 -726 -105 -96 -124 -118 -116 -130 3 -5 2 -7 -4 -4 -11 7 -53 -28 -53
-44 0 -6 -4 -7 -10 -4 -5 3 -10 2 -10 -4 0 -5 -34 -44 -75 -86 -42 -43 -72
-81 -69 -87 4 -6 3 -8 -4 -4 -6 3 -17 -3 -25 -14 -8 -11 -30 -37 -48 -58 -19
-20 -52 -59 -74 -87 -22 -27 -46 -54 -52 -58 -19 -12 -16 -40 3 -33 9 3 18 6
20 6 2 0 4 7 4 15 0 8 5 15 11 15 6 0 9 6 6 13 -3 7 10 23 29 36 19 13 31 27
28 32 -2 5 4 14 16 21 11 7 20 18 20 25 0 7 7 13 15 13 8 0 15 7 15 15 0 8 7
15 15 15 8 0 15 7 15 15 0 8 7 15 15 15 8 0 15 6 15 13 0 7 8 20 18 28 9 9 25
28 35 42 11 14 24 24 30 21 7 -2 23 14 37 36 17 28 32 40 47 40 16 0 23 6 23
18 0 12 14 25 39 36 21 10 44 29 50 42 6 13 17 24 26 24 8 0 15 4 15 10 0 5 7
7 15 4 9 -4 15 0 15 10 0 10 6 13 15 10 9 -4 15 0 15 7 0 11 3 11 10 -1 8 -13
10 -12 10 3 0 11 8 17 23 17 12 0 39 8 59 18 22 12 43 16 55 11 11 -4 26 -3
34 3 11 8 10 9 -4 4 -11 -3 -16 -2 -12 4 3 6 15 10 26 10 11 0 17 -4 14 -10
-12 -20 5 -29 31 -18 22 10 27 9 35 -5 12 -20 64 -24 54 -4 -4 6 0 4 8 -5 8
-10 18 -18 22 -18 4 0 2 6 -4 14 -7 9 -8 17 -3 20 6 3 12 -1 16 -9 3 -8 10
-15 17 -15 6 0 9 6 6 13 -3 8 1 14 9 14 17 0 17 -2 3 -30 -10 -21 -9 -21 5 -3
13 16 18 17 31 6 8 -7 22 -10 30 -6 9 3 15 0 15 -9 0 -8 7 -15 15 -15 8 0 15
4 15 9 0 5 11 11 25 13 29 6 32 0 8 -18 -17 -13 -17 -13 2 -15 11 -1 24 -1 29
0 4 1 14 -4 22 -10 10 -8 14 -8 14 0 0 6 5 11 11 11 5 0 7 -5 3 -12 -5 -8 -2
-9 9 -5 9 3 19 2 23 -4 3 -6 11 -3 19 8 7 10 17 15 21 10 4 -4 2 -13 -4 -19
-7 -7 -12 -17 -12 -23 0 -5 7 -2 14 8 8 11 20 15 31 11 13 -5 14 -9 3 -16 -9
-7 -4 -8 15 -5 20 3 32 -1 40 -14 7 -11 15 -19 20 -19 4 0 5 5 1 12 -9 13 12
3 40 -21 20 -18 25 -18 37 0 6 10 11 10 23 0 13 -11 16 -11 16 -1 0 8 3 10 8
6 4 -4 7 -13 7 -19 0 -6 17 -12 38 -14 21 -1 44 -7 51 -12 7 -6 16 -8 19 -4 4
3 7 0 7 -8 0 -11 2 -11 10 1 8 13 10 12 10 -4 0 -18 1 -18 20 -1 19 18 20 17
26 -13 4 -18 10 -29 15 -26 5 3 7 9 4 14 -9 15 15 22 30 10 9 -8 25 -9 42 -5
16 4 44 9 63 12 19 2 37 7 40 11 3 5 15 9 26 9 12 1 56 18 98 37 42 20 88 36
102 36 23 0 25 -3 20 -26 -15 -59 -176 -243 -529 -604 -250 -255 -463 -485
-496 -534 -8 -11 -34 -41 -57 -66 -23 -25 -62 -70 -85 -100 -23 -30 -49 -63
-58 -72 -9 -9 -27 -33 -41 -53 -14 -20 -52 -71 -85 -113 -78 -101 -105 -139
-105 -151 0 -5 -6 -11 -13 -14 -7 -3 -44 -52 -82 -109 -38 -56 -73 -108 -79
-113 -12 -12 -33 -43 -43 -65 -4 -8 -23 -39 -42 -69 -20 -29 -40 -61 -46 -70
-5 -9 -19 -29 -30 -46 -12 -16 -26 -41 -33 -55 -7 -14 -20 -37 -30 -51 -9 -15
-30 -48 -45 -75 -16 -27 -33 -56 -38 -64 -5 -8 -12 -23 -15 -32 -4 -10 -10
-18 -15 -18 -5 0 -9 -8 -9 -18 0 -11 -9 -27 -19 -36 -11 -10 -17 -24 -14 -32
3 -8 -2 -17 -11 -20 -9 -3 -16 -12 -16 -19 0 -7 -7 -18 -15 -25 -8 -7 -15 -19
-15 -27 0 -8 -6 -29 -14 -46 -8 -18 -20 -47 -27 -64 -8 -18 -20 -33 -26 -33
-7 0 -12 -3 -11 -7 1 -9 -13 -45 -42 -108 -42 -91 -51 -116 -45 -124 3 -5 1
-12 -5 -16 -5 -3 -10 0 -10 9 0 8 -5 16 -11 18 -8 3 -8 15 0 45 6 23 11 54 11
70 -1 34 3 54 19 111 7 24 14 56 16 73 6 48 115 412 135 450 14 27 33 137 27
158 -3 11 1 28 9 38 16 21 18 37 4 28 -5 -3 -11 2 -11 12 -4 66 -20 113 -38
113 -5 0 -9 16 -9 36 0 21 -8 44 -20 57 -11 12 -17 28 -15 35 3 8 -1 10 -12 5
-14 -5 -16 -2 -10 17 5 14 3 20 -3 16 -16 -9 -44 5 -38 20 3 7 -2 18 -9 24
-11 9 -12 17 -4 31 6 13 6 19 -1 19 -5 0 -10 -4 -10 -10 0 -5 -5 -10 -11 -10
-6 0 -9 7 -6 15 4 8 2 17 -4 21 -6 4 -5 12 3 22 11 13 10 15 -10 9 -21 -5 -23
-3 -17 20 4 19 3 24 -7 21 -9 -4 -13 5 -13 31 0 28 -4 35 -17 33 -12 -2 -16 5
-15 32 1 40 -21 75 -34 54 -6 -8 -9 1 -9 24 0 20 -5 40 -11 44 -8 4 -7 9 2 15
12 7 12 9 0 9 -7 0 -11 6 -7 15 3 8 0 15 -6 15 -7 0 -9 13 -5 34 4 25 1 36 -9
40 -9 3 -13 10 -10 15 3 5 -1 11 -9 15 -8 3 -15 0 -15 -6 0 -6 -3 -8 -7 -4 -5
4 0 13 9 20 16 12 16 14 -2 34 -22 23 -26 42 -9 42 7 0 8 11 4 30 -4 20 -3 30
5 30 7 0 10 7 6 15 -3 9 0 15 9 15 21 0 19 18 -2 22 -10 2 -24 -3 -31 -12 -10
-12 -10 -10 -1 12 7 16 17 24 25 21 17 -6 19 13 3 23 -8 4 -7 9 2 14 10 7 10
12 0 23 -9 12 -9 16 1 20 11 4 10 9 0 27 -12 20 -12 22 2 17 11 -5 16 -1 16
14 0 11 4 17 10 14 6 -3 7 1 4 9 -4 9 -1 16 6 16 8 0 10 9 6 26 -6 21 -4 25 8
21 18 -7 40 27 32 49 -3 8 -1 14 4 14 6 0 10 7 10 15 0 8 11 22 25 31 13 9 27
26 31 37 4 12 19 35 35 51 15 15 25 34 23 41 -3 8 4 16 17 20 20 7 21 8 5 17
-19 11 -56 -14 -56 -38 0 -8 -9 -19 -20 -26 -11 -7 -20 -18 -20 -25 0 -7 -4
-13 -10 -13 -5 0 -10 -6 -10 -12 0 -7 -16 -30 -35 -52 -19 -21 -32 -43 -28
-49 3 -5 2 -7 -4 -4 -5 4 -32 -28 -59 -71 -26 -42 -53 -81 -60 -87 -6 -5 -18
-25 -25 -42 -8 -18 -17 -33 -21 -33 -4 0 -23 -28 -43 -62 -20 -35 -50 -85 -67
-113 -75 -120 -248 -463 -308 -610 -4 -11 -20 -49 -35 -85 -37 -88 -104 -278
-111 -315 -3 -16 -11 -36 -16 -43 -6 -7 -8 -15 -5 -19 3 -3 -1 -22 -9 -42 -13
-31 -26 -79 -40 -146 -2 -11 -11 -52 -20 -92 -8 -39 -15 -79 -13 -90 1 -10 -3
-30 -9 -45 -6 -15 -8 -42 -5 -61 3 -20 1 -37 -6 -41 -15 -10 -14 -22 6 -41 12
-13 13 -19 4 -25 -10 -6 -10 -11 0 -28 10 -16 10 -23 0 -35 -13 -16 -6 -82 10
-103 5 -6 7 -18 4 -26 -4 -10 1 -17 14 -21 16 -4 21 -13 21 -41 0 -22 5 -36
13 -36 7 0 18 -9 25 -21 8 -12 19 -18 28 -15 19 7 18 -4 -3 -20 -17 -12 -17
-13 0 -26 10 -7 19 -23 20 -36 0 -12 7 -22 14 -22 7 0 13 -4 13 -9 0 -5 3 -17
6 -26 4 -9 3 -15 -2 -14 -19 3 -34 -1 -34 -10 0 -6 9 -8 20 -6 18 3 25 -5 21
-27 0 -5 6 -8 15 -8 8 0 12 5 9 10 -3 6 -4 10 -1 10 10 0 71 -40 64 -41 -5 -1
-13 -2 -18 -3 -14 -1 -30 -28 -24 -38 3 -4 11 -8 17 -8 8 0 8 3 -1 9 -11 6
-10 10 4 15 9 3 19 4 22 1 3 -3 1 -5 -5 -5 -6 0 -8 -11 -5 -25 2 -14 9 -22 14
-19 5 3 7 13 4 21 -4 9 -1 13 6 10 7 -2 13 -19 13 -38 0 -24 5 -34 15 -34 10
0 15 11 15 35 0 36 23 50 33 21 3 -10 0 -12 -13 -7 -14 5 -15 3 -7 -6 5 -7 8
-30 6 -51 -3 -27 -1 -38 8 -36 25 3 58 -13 58 -28 0 -8 -5 -13 -12 -11 -13 5
-58 -30 -58 -44 0 -4 9 -8 20 -8 12 0 20 -7 20 -17 0 -16 2 -16 10 -3 9 13 12
13 21 -2 5 -10 16 -18 24 -18 18 0 28 -33 21 -68 -3 -16 0 -35 9 -47 14 -18
16 -18 33 -2 16 17 16 17 -8 15 -19 -2 -25 2 -25 17 0 14 6 19 20 17 11 -2 27
-4 35 -5 10 -1 15 -13 15 -38 0 -30 -3 -35 -20 -32 -16 3 -15 1 5 -11 14 -8
24 -17 23 -20 -8 -18 -1 -34 17 -39 14 -3 20 -14 20 -31 0 -17 5 -26 16 -26
11 0 14 -6 8 -22 -4 -13 -9 -36 -10 -52 -1 -16 -8 -33 -16 -38 -9 -6 -6 -7 9
-3 20 6 21 3 16 -29 -3 -22 1 -46 11 -67 11 -21 13 -35 6 -37 -13 -5 -13 -32
-1 -32 15 0 8 -84 -8 -96 -11 -8 -11 -15 -1 -33 6 -13 18 -96 26 -184 11 -136
30 -310 48 -442 36 -262 112 -580 194 -815 54 -157 258 -544 568 -1082 43 -76
88 -155 99 -175 20 -37 89 -158 124 -218 10 -16 29 -50 43 -75 14 -25 50 -89
81 -142 32 -54 82 -142 113 -195 31 -54 89 -154 129 -223 40 -69 83 -143 96
-165 12 -22 61 -105 107 -185 46 -80 101 -174 122 -210 706 -1214 1219 -2070
1348 -2249 31 -42 102 -126 177 -210 47 -52 186 -175 276 -246 35 -27 66 -52
69 -55 3 -3 40 -27 82 -53 162 -100 357 -178 535 -214 125 -25 425 -25 543 1
401 86 774 316 1102 680 260 288 422 543 773 1216 70 135 151 290 180 345 59
112 427 841 960 1900 854 1694 991 1971 1115 2255 51 114 63 146 101 269 30
98 32 105 49 184 5 27 12 52 14 56 7 11 51 217 70 326 9 50 18 101 21 114 15
80 40 309 50 476 8 127 8 463 0 570 -11 158 -25 299 -35 350 -5 28 -11 68 -14
90 -12 98 -51 282 -87 415 -74 273 -143 470 -245 698 -12 27 -24 40 -32 37
-61 -23 -232 -48 -337 -48 -293 -1 -521 103 -746 341 -92 97 -133 159 -184
279 -99 228 -98 539 2 799 3 8 0 14 -6 14 -10 0 -98 54 -183 112 -15 10 -30
18 -32 18 -3 0 -30 16 -60 35 -54 34 -334 179 -431 222 -133 59 -245 106 -295
123 -30 10 -86 29 -125 43 -305 107 -645 187 -1030 242 -104 14 -242 35 -305
46 -63 11 -123 20 -132 20 -10 0 -18 3 -18 6 0 13 65 63 77 59 7 -3 13 -1 13
4 0 6 -6 10 -14 10 -19 0 -26 26 -22 70 3 19 2 29 -1 23 -2 -7 -8 -13 -13 -13
-8 0 -33 55 -30 66 1 3 -10 19 -25 34 -15 16 -25 34 -23 42 3 7 -5 29 -17 48
-12 19 -25 45 -29 58 -4 12 -11 22 -16 22 -5 0 -7 6 -4 13 2 7 -5 24 -17 38
-12 13 -30 43 -40 67 -10 23 -25 42 -33 42 -15 0 -29 27 -20 41 3 5 -1 9 -9 9
-7 0 -23 9 -35 20 -12 11 -26 20 -32 20 -6 0 -9 3 -6 8 2 4 -13 8 -35 8 -21 1
-45 7 -52 13 -13 10 -288 20 -397 14z m-2774 -1365 c4 -6 3 -8 -4 -4 -5 3 -12
0 -15 -6 -2 -7 -8 -10 -12 -6 -8 8 2 28 15 28 5 0 12 -5 16 -12z m-984 -710
c-7 -7 -12 -8 -12 -2 0 14 12 26 19 19 2 -3 -1 -11 -7 -17z m4998 -838 c827
-136 1473 -652 1774 -1420 120 -304 179 -697 156 -1042 -46 -699 -348 -1349
-856 -1850 -141 -137 -187 -177 -316 -274 -389 -290 -874 -483 -1340 -533
-144 -16 -448 -14 -585 4 -407 54 -764 199 -1090 444 -493 370 -784 860 -880
1481 -13 86 -17 173 -17 340 1 312 32 513 131 830 19 63 39 120 43 125 4 6 13
28 20 50 16 52 182 394 218 449 15 23 32 49 37 58 27 46 141 207 165 233 15
17 31 37 36 46 11 21 107 131 199 227 176 186 460 406 662 513 43 23 96 52
118 64 22 13 94 46 160 73 256 106 504 171 750 196 172 18 460 12 615 -14z
m-5103 -72 c-3 -8 -6 -5 -6 6 -1 11 2 17 5 13 3 -3 4 -12 1 -19z m-467 -1978
c0 -13 -11 -13 -30 0 -12 8 -11 10 8 10 12 0 22 -4 22 -10z m40 -80 c0 -5 -7
-10 -15 -10 -8 0 -15 5 -15 10 0 6 7 10 15 10 8 0 15 -4 15 -10z m-45 -20 c3
-6 -1 -13 -10 -16 -19 -8 -30 0 -20 15 8 14 22 14 30 1z m65 -66 c0 -24 -17
-15 -22 11 -4 20 -3 23 8 14 8 -6 14 -18 14 -25z"/>
<path d="M46600 22671 c0 -6 5 -13 12 -17 6 -4 8 -3 4 4 -3 5 0 13 6 15 8 3 6
6 -4 6 -10 1 -18 -3 -18 -8z"/>
<path d="M46630 22649 c0 -5 5 -7 10 -4 6 3 10 8 10 11 0 2 -4 4 -10 4 -5 0
-10 -5 -10 -11z"/>
<path d="M46690 22550 c0 -5 7 -10 15 -10 8 0 15 5 15 10 0 6 -7 10 -15 10 -8
0 -15 -4 -15 -10z"/>
<path d="M42167 19846 c-3 -8 2 -16 14 -19 23 -6 24 -1 5 18 -12 12 -15 12
-19 1z"/>
<path d="M41400 18040 c0 -5 5 -10 10 -10 6 0 10 5 10 10 0 6 -4 10 -10 10 -5
0 -10 -4 -10 -10z"/>
<path d="M41530 17790 c0 -5 5 -10 11 -10 5 0 7 5 4 10 -3 6 -8 10 -11 10 -2
0 -4 -4 -4 -10z"/>
<path d="M46945 7686 c-5 -3 -41 -8 -80 -12 l-70 -7 75 -14 c41 -8 91 -14 110
-14 44 1 127 -26 133 -43 4 -10 -4 -11 -33 -6 l-39 7 43 -42 c24 -22 46 -54
50 -69 22 -90 -208 -237 -448 -287 -217 -45 -374 -14 -376 74 0 16 20 6 21
-10 0 -10 7 9 14 43 7 34 24 83 38 110 22 44 112 139 162 172 11 7 -31 -13
-93 -45 -76 -39 -107 -59 -96 -63 13 -5 11 -9 -12 -25 -16 -10 -37 -29 -48
-42 -10 -14 -25 -22 -33 -19 -8 3 -12 2 -9 -3 3 -5 -1 -14 -9 -21 -8 -7 -15
-23 -15 -36 0 -13 -5 -23 -11 -22 -6 2 -13 -10 -16 -26 -3 -23 -1 -27 12 -23
13 5 12 2 -2 -20 -17 -26 -17 -27 1 -20 15 6 17 5 7 -6 -9 -11 -3 -18 32 -32
95 -41 124 -45 323 -48 145 -2 164 -4 184 -22 12 -11 19 -27 17 -37 -3 -10 -1
-20 4 -23 4 -3 0 -14 -10 -24 -10 -10 -20 -22 -22 -27 -13 -30 -127 -87 -206
-104 -78 -16 -235 -9 -283 12 -19 9 -50 21 -67 28 -18 7 -33 15 -33 19 0 5
-34 25 -82 48 -4 2 -5 -2 -2 -10 7 -19 -27 -32 -38 -15 -18 30 6 -81 46 -209
46 -145 154 -259 296 -311 90 -34 285 -42 430 -17 254 42 483 126 652 238 116
78 232 204 267 292 2 6 9 13 15 17 19 13 -8 9 -54 -7 -23 -8 -46 -15 -49 -15
-4 0 -7 48 -7 108 0 96 -3 119 -36 221 -20 63 -40 117 -45 120 -4 3 -9 12 -11
20 -2 8 -13 28 -24 45 -89 130 -230 193 -446 201 -64 3 -121 3 -127 1z m-505
-171 c-14 -17 -30 -20 -30 -4 0 5 5 7 10 4 6 -3 10 -1 10 4 0 6 5 11 11 11 8
0 8 -5 -1 -15z m-74 -103 c-17 -32 -46 -60 -46 -44 0 11 48 72 56 72 3 0 -2
-13 -10 -28z"/>
</g>
</svg>
